<svg xmlns="http://www.w3.org/2000/svg" viewBox="0 0 128 128" width="128" height="128">
	<title>CraftDeck</title>
	<defs>
		<clipPath id="cd-back"><rect x="40" y="14" width="74" height="74" rx="14"/></clipPath>
		<clipPath id="cd-front"><rect x="14" y="26" width="88" height="88" rx="16"/></clipPath>
	</defs>
	<g transform="rotate(8 77 51)">
		<rect x="40" y="14" width="74" height="74" rx="14" fill="#4a2c17"/>
		<path
			d="M40,14 L114,14 L114,38 L106,30 L98,40 L90,29 L82,40 L74,29 L66,40 L58,29 L50,38 L40,31 Z"
			fill="#5c9a35"
			clip-path="url(#cd-back)"
		/>
	</g>
	<g transform="rotate(-4 58 70)">
		<rect x="14" y="26" width="88" height="88" rx="16" fill="#7a4a24"/>
		<path
			d="M14,26 L102,26 L102,62 L88,50 L76,64 L64,48 L52,64 L40,50 L26,62 L14,52 Z"
			fill="#68ac3c"
			clip-path="url(#cd-front)"
		/>
	</g>
</svg>
